<mxfile host="app.diagrams.net" agent="Mozilla/5.0 (X11; Linux x86_64) AppleWebKit/537.36 (KHTML, like Gecko) Chrome/134.0.0.0 Safari/537.36" version="26.1.1">
  <diagram name="Page-1" id="b5b7bab2-c9e2-2cf4-8b2a-24fd1a2a6d21">
    <mxGraphModel dx="1235" dy="618" grid="1" gridSize="10" guides="1" tooltips="1" connect="1" arrows="1" fold="1" page="1" pageScale="1" pageWidth="1169" pageHeight="827" background="none" math="0" shadow="0">
      <root>
        <mxCell id="0" />
        <mxCell id="1" parent="0" />
        <mxCell id="6o90S77G5PdcKT1AFFqI-1" value="main" style="shape=folder;fontStyle=1;spacingTop=10;tabWidth=40;tabHeight=14;tabPosition=left;html=1;whiteSpace=wrap;shadow=0;" vertex="1" parent="1">
          <mxGeometry x="90" y="140" width="70" height="50" as="geometry" />
        </mxCell>
        <mxCell id="6o90S77G5PdcKT1AFFqI-2" value="server" style="shape=folder;fontStyle=1;spacingTop=10;tabWidth=40;tabHeight=14;tabPosition=left;html=1;whiteSpace=wrap;shadow=0;" vertex="1" parent="1">
          <mxGeometry x="260" y="140" width="70" height="50" as="geometry" />
        </mxCell>
        <mxCell id="6o90S77G5PdcKT1AFFqI-3" value="model" style="shape=folder;fontStyle=1;spacingTop=10;tabWidth=40;tabHeight=14;tabPosition=left;html=1;whiteSpace=wrap;shadow=0;" vertex="1" parent="1">
          <mxGeometry x="463" y="40" width="70" height="50" as="geometry" />
        </mxCell>
        <mxCell id="6o90S77G5PdcKT1AFFqI-4" value="view" style="shape=folder;fontStyle=1;spacingTop=10;tabWidth=40;tabHeight=14;tabPosition=left;html=1;whiteSpace=wrap;shadow=0;" vertex="1" parent="1">
          <mxGeometry x="463" y="140" width="70" height="50" as="geometry" />
        </mxCell>
        <mxCell id="6o90S77G5PdcKT1AFFqI-5" value="controller" style="shape=folder;fontStyle=1;spacingTop=10;tabWidth=40;tabHeight=14;tabPosition=left;html=1;whiteSpace=wrap;shadow=0;" vertex="1" parent="1">
          <mxGeometry x="463" y="240" width="70" height="50" as="geometry" />
        </mxCell>
        <mxCell id="6o90S77G5PdcKT1AFFqI-7" value="&amp;lt;&amp;lt;import&amp;gt;&amp;gt;" style="endArrow=open;endSize=12;dashed=1;html=1;rounded=0;exitX=0;exitY=0;exitDx=70;exitDy=32;exitPerimeter=0;entryX=0;entryY=0;entryDx=0;entryDy=32;entryPerimeter=0;shadow=0;" edge="1" parent="1" source="6o90S77G5PdcKT1AFFqI-1" target="6o90S77G5PdcKT1AFFqI-2">
          <mxGeometry width="160" relative="1" as="geometry">
            <mxPoint x="150" y="370" as="sourcePoint" />
            <mxPoint x="310" y="370" as="targetPoint" />
          </mxGeometry>
        </mxCell>
        <mxCell id="6o90S77G5PdcKT1AFFqI-11" value="&amp;lt;&amp;lt;import&amp;gt;&amp;gt;" style="endArrow=open;endSize=12;dashed=1;html=1;rounded=0;exitX=0;exitY=0;exitDx=70;exitDy=32;exitPerimeter=0;entryX=0;entryY=0;entryDx=0;entryDy=32;entryPerimeter=0;shadow=0;" edge="1" parent="1">
          <mxGeometry x="0.203" y="13" width="160" relative="1" as="geometry">
            <mxPoint x="330" y="173" as="sourcePoint" />
            <mxPoint x="463" y="173" as="targetPoint" />
            <mxPoint as="offset" />
          </mxGeometry>
        </mxCell>
        <mxCell id="6o90S77G5PdcKT1AFFqI-12" value="&amp;lt;&amp;lt;import&amp;gt;&amp;gt;" style="endArrow=open;endSize=12;dashed=1;html=1;rounded=0;exitX=0;exitY=0;exitDx=70;exitDy=32;exitPerimeter=0;entryX=0;entryY=0;entryDx=0;entryDy=32;entryPerimeter=0;shadow=0;" edge="1" parent="1" source="6o90S77G5PdcKT1AFFqI-2" target="6o90S77G5PdcKT1AFFqI-3">
          <mxGeometry x="0.5451" y="7" width="160" relative="1" as="geometry">
            <mxPoint x="290" y="340" as="sourcePoint" />
            <mxPoint x="450" y="340" as="targetPoint" />
            <Array as="points">
              <mxPoint x="360" y="172" />
              <mxPoint x="360" y="72" />
            </Array>
            <mxPoint as="offset" />
          </mxGeometry>
        </mxCell>
        <mxCell id="6o90S77G5PdcKT1AFFqI-13" value="&amp;lt;&amp;lt;import&amp;gt;&amp;gt;" style="endArrow=open;endSize=12;dashed=1;html=1;rounded=0;exitX=0;exitY=0;exitDx=70;exitDy=32;exitPerimeter=0;entryX=0;entryY=0;entryDx=0;entryDy=32;entryPerimeter=0;shadow=0;" edge="1" parent="1" source="6o90S77G5PdcKT1AFFqI-2" target="6o90S77G5PdcKT1AFFqI-5">
          <mxGeometry x="0.5451" y="12" width="160" relative="1" as="geometry">
            <mxPoint x="290" y="270" as="sourcePoint" />
            <mxPoint x="450" y="270" as="targetPoint" />
            <Array as="points">
              <mxPoint x="360" y="172" />
              <mxPoint x="360" y="272" />
            </Array>
            <mxPoint as="offset" />
          </mxGeometry>
        </mxCell>
        <mxCell id="6o90S77G5PdcKT1AFFqI-14" value="&amp;lt;&amp;lt;use&amp;gt;&amp;gt;" style="endArrow=open;endSize=12;dashed=1;html=1;rounded=0;exitX=0;exitY=0;exitDx=70;exitDy=23;exitPerimeter=0;entryX=0;entryY=0;entryDx=70;entryDy=41;entryPerimeter=0;shadow=0;" edge="1" parent="1">
          <mxGeometry x="0.0138" width="160" relative="1" as="geometry">
            <mxPoint x="533" y="163" as="sourcePoint" />
            <mxPoint x="533" y="81" as="targetPoint" />
            <Array as="points">
              <mxPoint x="600" y="163" />
              <mxPoint x="600" y="80" />
            </Array>
            <mxPoint as="offset" />
          </mxGeometry>
        </mxCell>
        <mxCell id="6o90S77G5PdcKT1AFFqI-15" value="&amp;lt;&amp;lt;import&amp;gt;&amp;gt;" style="endArrow=open;endSize=12;dashed=1;html=1;rounded=0;exitX=0;exitY=0;exitDx=70;exitDy=23;exitPerimeter=0;entryX=0;entryY=0;entryDx=70;entryDy=41;entryPerimeter=0;shadow=0;" edge="1" parent="1" source="6o90S77G5PdcKT1AFFqI-5" target="6o90S77G5PdcKT1AFFqI-4">
          <mxGeometry x="-0.001" width="160" relative="1" as="geometry">
            <mxPoint x="560" y="264.71" as="sourcePoint" />
            <mxPoint x="720" y="264.71" as="targetPoint" />
            <Array as="points">
              <mxPoint x="600" y="263" />
              <mxPoint x="600" y="181" />
            </Array>
            <mxPoint as="offset" />
          </mxGeometry>
        </mxCell>
        <mxCell id="6o90S77G5PdcKT1AFFqI-16" value="&amp;lt;&amp;lt;import&amp;gt;&amp;gt;" style="endArrow=open;endSize=12;dashed=1;html=1;rounded=0;exitX=0;exitY=0;exitDx=70;exitDy=41;exitPerimeter=0;entryX=0;entryY=0;entryDx=70;entryDy=23;entryPerimeter=0;shadow=0;" edge="1" parent="1" source="6o90S77G5PdcKT1AFFqI-5" target="6o90S77G5PdcKT1AFFqI-3">
          <mxGeometry width="160" relative="1" as="geometry">
            <mxPoint x="570" y="290" as="sourcePoint" />
            <mxPoint x="730" y="290" as="targetPoint" />
            <Array as="points">
              <mxPoint x="650" y="281" />
              <mxPoint x="650" y="63" />
            </Array>
          </mxGeometry>
        </mxCell>
      </root>
    </mxGraphModel>
  </diagram>
</mxfile>
